<?xml version="1.0" encoding="UTF-8"?><svg id="Branding" xmlns="http://www.w3.org/2000/svg" viewBox="0 0 664.32 307.24"><defs><style>.cls-1{fill:#f6f3f1;}</style></defs><path class="cls-1" d="m60.82,243.59c0-1.68-.6-3.02-1.79-4-1.19-.98-3.37-1.91-6.54-2.8-3.17-.88-5.48-1.85-6.94-2.89-2.08-1.47-3.11-3.41-3.11-5.8s.96-4.21,2.89-5.67,4.39-2.18,7.39-2.18c2.03,0,3.85.39,5.46,1.17,1.61.78,2.85,1.87,3.73,3.26.88,1.39,1.32,2.94,1.32,4.65h-2.61c0-2.08-.71-3.75-2.15-5.01-1.43-1.26-3.35-1.89-5.76-1.89s-4.21.52-5.59,1.56c-1.39,1.04-2.08,2.39-2.08,4.07,0,1.55.62,2.81,1.87,3.78,1.25.98,3.25,1.84,5.99,2.58,2.75.74,4.83,1.52,6.25,2.32s2.48,1.76,3.2,2.87c.72,1.11,1.07,2.43,1.07,3.95,0,2.39-.96,4.31-2.89,5.76s-4.47,2.17-7.62,2.17c-2.16,0-4.14-.38-5.94-1.15-1.8-.77-3.17-1.84-4.1-3.21-.93-1.38-1.4-2.96-1.4-4.74h2.59c0,2.14.81,3.83,2.42,5.07,1.61,1.24,3.76,1.86,6.44,1.86,2.38,0,4.3-.52,5.74-1.57,1.44-1.04,2.17-2.43,2.17-4.15Z"/><path class="cls-1" d="m90.1,220.67v20.75c-.01,2.05-.47,3.83-1.37,5.34-.9,1.52-2.16,2.68-3.8,3.5-1.63.81-3.51,1.22-5.63,1.22-3.22,0-5.81-.87-7.75-2.62-1.94-1.75-2.95-4.16-3.02-7.25v-20.93h2.57v20.56c0,2.56.74,4.55,2.21,5.96,1.47,1.41,3.47,2.12,5.99,2.12s4.52-.71,5.98-2.13c1.47-1.42,2.2-3.39,2.2-5.93v-20.58h2.61Z"/><path class="cls-1" d="m114.64,243.59c0-1.68-.6-3.02-1.79-4-1.19-.98-3.37-1.91-6.54-2.8s-5.48-1.85-6.94-2.89c-2.08-1.47-3.11-3.41-3.11-5.8s.96-4.21,2.89-5.67,4.39-2.18,7.39-2.18c2.03,0,3.85.39,5.46,1.17,1.61.78,2.85,1.87,3.73,3.26.88,1.39,1.32,2.94,1.32,4.65h-2.61c0-2.08-.71-3.75-2.15-5.01-1.43-1.26-3.35-1.89-5.76-1.89s-4.21.52-5.59,1.56c-1.39,1.04-2.08,2.39-2.08,4.07,0,1.55.62,2.81,1.87,3.78,1.25.98,3.25,1.84,5.99,2.58,2.75.74,4.83,1.52,6.25,2.32s2.48,1.76,3.2,2.87c.72,1.11,1.07,2.43,1.07,3.95,0,2.39-.96,4.31-2.89,5.76s-4.47,2.17-7.62,2.17c-2.16,0-4.14-.38-5.94-1.15-1.8-.77-3.17-1.84-4.1-3.21-.93-1.38-1.4-2.96-1.4-4.74h2.59c0,2.14.81,3.83,2.42,5.07,1.61,1.24,3.76,1.86,6.44,1.86,2.38,0,4.3-.52,5.74-1.57,1.44-1.04,2.17-2.43,2.17-4.15Z"/><path class="cls-1" d="m143.6,222.84h-10.49v28.22h-2.59v-28.22h-10.47v-2.17h23.55v2.17Z"/><path class="cls-1" d="m163.41,242.52h-13.9l-3.15,8.54h-2.71l11.59-30.39h2.46l11.59,30.39h-2.69l-3.18-8.54Zm-13.1-2.17h12.28l-6.14-16.55-6.14,16.55Z"/><path class="cls-1" d="m176.93,251.06h-2.59v-30.39h2.59v30.39Z"/><path class="cls-1" d="m208.04,251.06h-2.59l-17.6-26v26h-2.61v-30.39h2.61l17.62,26.03v-26.03h2.57v30.39Z"/><path class="cls-1" d="m232.73,242.52h-13.9l-3.15,8.54h-2.71l11.59-30.39h2.46l11.59,30.39h-2.69l-3.18-8.54Zm-13.1-2.17h12.28l-6.14-16.55-6.14,16.55Z"/><path class="cls-1" d="m243.09,251.06v-30.39h9.04c3.28,0,5.77.67,7.47,2.02,1.7,1.34,2.54,3.32,2.54,5.94,0,1.57-.43,2.94-1.29,4.1-.86,1.16-2.04,1.99-3.54,2.5,1.78.39,3.21,1.26,4.3,2.61,1.09,1.35,1.63,2.91,1.63,4.67,0,2.68-.87,4.78-2.62,6.29-1.75,1.51-4.17,2.26-7.29,2.26h-10.24Zm2.59-16.76h7.07c2.16-.04,3.83-.55,5.02-1.52,1.18-.97,1.78-2.38,1.78-4.23,0-1.95-.61-3.39-1.84-4.32-1.23-.93-3.08-1.39-5.56-1.39h-6.46v11.46Zm0,2.17v12.42h7.76c2.22,0,3.97-.56,5.27-1.68,1.3-1.12,1.95-2.67,1.95-4.66,0-1.87-.62-3.36-1.86-4.45-1.24-1.09-2.95-1.64-5.14-1.64h-7.97Z"/><path class="cls-1" d="m272.09,248.89h15.12v2.17h-17.73v-30.39h2.61v28.22Z"/><path class="cls-1" d="m309.09,236.49h-14.32v12.4h16.47v2.17h-19.05v-30.39h18.95v2.17h-16.36v11.48h14.32v2.17Z"/><path class="cls-1" d="m348.83,241.58c-.35,3.2-1.5,5.65-3.46,7.35-1.96,1.7-4.56,2.55-7.81,2.55-2.27,0-4.28-.56-6.03-1.69-1.75-1.13-3.1-2.72-4.05-4.79-.95-2.07-1.44-4.43-1.45-7.09v-3.94c0-2.7.48-5.09,1.43-7.18.95-2.09,2.32-3.7,4.11-4.83,1.79-1.13,3.84-1.7,6.17-1.7,3.28,0,5.87.88,7.77,2.63,1.9,1.75,3,4.18,3.31,7.28h-2.61c-.64-5.16-3.47-7.74-8.48-7.74-2.78,0-4.99,1.03-6.64,3.09-1.65,2.06-2.47,4.91-2.47,8.54v3.72c0,3.51.8,6.31,2.41,8.4,1.61,2.09,3.77,3.13,6.51,3.13s4.75-.64,6.12-1.93c1.37-1.29,2.22-3.22,2.54-5.79h2.61Z"/><path class="cls-1" d="m372.03,236.49h-14.32v12.4h16.47v2.17h-19.05v-30.39h18.95v2.17h-16.36v11.48h14.32v2.17Z"/><path class="cls-1" d="m382.23,248.89h15.12v2.17h-17.73v-30.39h2.61v28.22Z"/><path class="cls-1" d="m419.22,236.49h-14.32v12.4h16.47v2.17h-19.05v-30.39h18.95v2.17h-16.36v11.48h14.32v2.17Z"/><path class="cls-1" d="m426.81,251.06v-30.39h9.04c3.28,0,5.77.67,7.47,2.02,1.7,1.34,2.54,3.32,2.54,5.94,0,1.57-.43,2.94-1.29,4.1-.86,1.16-2.04,1.99-3.54,2.5,1.78.39,3.21,1.26,4.3,2.61,1.09,1.35,1.63,2.91,1.63,4.67,0,2.68-.87,4.78-2.62,6.29-1.75,1.51-4.17,2.26-7.29,2.26h-10.24Zm2.59-16.76h7.07c2.16-.04,3.83-.55,5.02-1.52,1.18-.97,1.78-2.38,1.78-4.23,0-1.95-.61-3.39-1.84-4.32-1.23-.93-3.08-1.39-5.56-1.39h-6.46v11.46Zm0,2.17v12.42h7.76c2.22,0,3.97-.56,5.27-1.68s1.95-2.67,1.95-4.66c0-1.87-.62-3.36-1.86-4.45-1.24-1.09-2.95-1.64-5.14-1.64h-7.97Z"/><path class="cls-1" d="m464.65,238.39h-8.9v12.67h-2.61v-30.39h9.95c3.27,0,5.82.78,7.65,2.36,1.84,1.57,2.75,3.77,2.75,6.59,0,1.95-.57,3.66-1.72,5.15s-2.69,2.52-4.63,3.09l7.65,12.94v.27h-2.75l-7.4-12.67Zm-8.9-2.17h7.93c2.17,0,3.92-.61,5.24-1.84,1.32-1.23,1.98-2.81,1.98-4.77,0-2.15-.69-3.81-2.06-5-1.37-1.18-3.3-1.78-5.78-1.78h-7.3v13.38Z"/><path class="cls-1" d="m497.08,242.52h-13.9l-3.15,8.54h-2.71l11.59-30.39h2.46l11.59,30.39h-2.69l-3.18-8.54Zm-13.1-2.17h12.28l-6.14-16.55-6.14,16.55Z"/><path class="cls-1" d="m525.51,222.84h-10.49v28.22h-2.59v-28.22h-10.47v-2.17h23.55v2.17Z"/><path class="cls-1" d="m533.61,251.06h-2.59v-30.39h2.59v30.39Z"/><path class="cls-1" d="m564.54,237.51c0,2.8-.49,5.25-1.46,7.37-.97,2.11-2.37,3.74-4.17,4.88-1.81,1.14-3.9,1.71-6.27,1.71-3.58,0-6.46-1.27-8.66-3.81-2.2-2.54-3.3-5.97-3.3-10.28v-3.13c0-2.77.49-5.22,1.48-7.36.99-2.14,2.39-3.78,4.2-4.93,1.81-1.15,3.89-1.72,6.25-1.72s4.43.56,6.24,1.69c1.8,1.13,3.19,2.72,4.17,4.78.98,2.06,1.49,4.44,1.53,7.16v3.63Zm-2.59-3.3c0-3.66-.83-6.53-2.5-8.6s-3.95-3.11-6.86-3.11-5.11,1.04-6.8,3.12-2.53,4.98-2.53,8.71v3.17c0,3.6.84,6.46,2.52,8.57,1.68,2.11,3.97,3.16,6.86,3.16s5.22-1.04,6.86-3.12c1.64-2.08,2.46-4.98,2.46-8.69v-3.21Z"/><path class="cls-1" d="m593.86,251.06h-2.59l-17.6-26v26h-2.61v-30.39h2.61l17.62,26.03v-26.03h2.57v30.39Z"/><path class="cls-1" d="m618.97,243.59c0-1.68-.6-3.02-1.79-4-1.19-.98-3.37-1.91-6.54-2.8-3.17-.88-5.48-1.85-6.94-2.89-2.08-1.47-3.11-3.41-3.11-5.8s.96-4.21,2.89-5.67,4.39-2.18,7.39-2.18c2.03,0,3.85.39,5.46,1.17s2.85,1.87,3.73,3.26c.88,1.39,1.32,2.94,1.32,4.65h-2.61c0-2.08-.72-3.75-2.15-5.01-1.43-1.26-3.35-1.89-5.76-1.89s-4.21.52-5.59,1.56c-1.39,1.04-2.08,2.39-2.08,4.07,0,1.55.62,2.81,1.87,3.78,1.25.98,3.25,1.84,5.99,2.58,2.75.74,4.83,1.52,6.25,2.32,1.42.8,2.48,1.76,3.2,2.87.71,1.11,1.07,2.43,1.07,3.95,0,2.39-.96,4.31-2.89,5.76-1.93,1.45-4.47,2.17-7.62,2.17-2.16,0-4.14-.38-5.94-1.15-1.8-.77-3.17-1.84-4.1-3.21-.93-1.38-1.4-2.96-1.4-4.74h2.59c0,2.14.81,3.83,2.42,5.07s3.76,1.86,6.44,1.86c2.38,0,4.3-.52,5.74-1.57,1.44-1.04,2.17-2.43,2.17-4.15Z"/><path class="cls-1" d="m52.57,164.95c.4-1.19,1.59-1.39,2.58-.79,7.73,4.56,16.05,8.12,22.79,8.12,4.16.4,6.94-1.98,6.94-4.95,0-10.11-43.4-6.93-43.4-44.19,0-21.2,18.03-35.47,44.98-35.47,12.88,0,28.34,4.56,38.84,11.29.99.79,1.59,1.78,1.19,2.77l-10.11,23.38c-.4,1.19-1.59,1.39-2.58.79-7.73-4.95-16.05-8.12-22.79-8.12-4.16-.4-6.94,1.58-6.94,4.76,0,10.5,43.4,6.74,43.4,44.39,0,21.2-17.44,35.47-43.79,35.47-12.88,0-28.93-4.56-40.03-11.29-.99-.99-1.59-1.98-1.19-3.17l10.11-22.99Z"/><path class="cls-1" d="m233.68,90.45c1.59,0,2.97,1.39,2.97,2.97v103.24c0,1.39-1.39,2.77-2.97,2.77h-22.39c-1.59,0-2.58-1.39-3.17-2.97l-2.97-7.13c-7.13,7.93-18.82,13.08-31.7,13.08-25.76,0-41.02-16.45-41.02-43.4v-65.59c0-1.58,1.39-2.97,2.97-2.97h34.87c1.59,0,2.97,1.39,2.97,2.97v60.63c0,6.74,4.16,11.29,10.5,11.29,7.73,0,12.09-6.34,12.09-6.34v-65.59c0-1.58,1.39-2.97,2.97-2.97h34.87Z"/><path class="cls-1" d="m253.9,164.95c.4-1.19,1.59-1.39,2.58-.79,7.73,4.56,16.05,8.12,22.79,8.12,4.16.4,6.94-1.98,6.94-4.95,0-10.11-43.4-6.93-43.4-44.19,0-21.2,18.03-35.47,44.98-35.47,12.88,0,28.34,4.56,38.84,11.29.99.79,1.58,1.78,1.19,2.77l-10.11,23.38c-.4,1.19-1.59,1.39-2.58.79-7.73-4.95-16.05-8.12-22.79-8.12-4.16-.4-6.94,1.58-6.94,4.76,0,10.5,43.39,6.74,43.39,44.39,0,21.2-17.44,35.47-43.79,35.47-12.88,0-28.93-4.56-40.03-11.29-.99-.99-1.59-1.98-1.19-3.17l10.11-22.99Z"/><path class="cls-1" d="m429.26,187.94c.59.99,0,2.38-1.19,3.37-10.7,6.74-25.36,11.29-36.66,11.29-35.87,0-59.64-22.99-59.64-57.46s23.78-57.46,59.64-57.46c11.29,0,25.96,4.56,36.66,11.29,1.19.99,1.78,2.38,1.19,3.37l-11.49,24.17c-.79,1.58-2.18,2.18-3.57,1.19-4.95-3.57-12.48-5.94-19.02-5.94-14.46,0-23.98,9.31-23.98,23.38s9.51,23.38,23.98,23.38c6.54,0,14.07-2.38,19.02-5.94,1.39-.99,2.77-.4,3.57,1.19l11.49,24.17Z"/><path class="cls-1" d="m533.3,188.33c.4,1.39,0,2.18-1.39,2.97-10.5,6.94-25.76,11.1-41.02,11.1-35.07,0-58.45-22.99-58.45-57.27s22.99-57.46,57.46-57.46,52.31,21.2,52.31,57.27c0,2.97-.2,5.94-.79,8.92-.2,1.58-1.19,2.38-2.97,2.38h-63.61s0,12.48,16.64,12.48c10.11,0,21.4-2.38,30.32-6.54,1.39-.59,2.58.2,2.97,1.58l8.52,24.57Zm-30.52-52.91c0-8.72-5.35-14.47-13.28-14.47-8.92,0-14.86,5.75-14.86,14.47h28.14Z"/><path class="cls-1" d="m586.2,55.77c1.58,0,2.97,1.39,2.97,2.77v137.91c0,1.58-1.39,2.97-2.97,2.97h-34.88c-1.58,0-2.97-1.39-2.97-2.97V58.54c0-1.39,1.39-2.77,2.97-2.77h34.88Z"/><path class="cls-1" d="m613.35,202.2c-10.5,0-17.44-6.54-17.44-16.25s6.94-16.65,17.44-16.65,17.44,6.74,17.44,16.65-6.94,16.25-17.44,16.25Z"/></svg>