<?xml version="1.0" encoding="UTF-8"?><svg id="Branding" xmlns="http://www.w3.org/2000/svg" viewBox="0 0 308.69 307.24"><defs><style>.cls-1{fill:#1e1e1c;}</style></defs><path class="cls-1" d="m241.52,106.8h-52.3c37.09-4.73,46.22-18.41,46.54-30.32.41-15.45-13.77-27.16-29.03-24.69-14.35,2.32-24.91,15.23-31.88,28.14,6.25-27.72,7.65-65.09-31.87-61.05-12.26,1.25-22.93,9.24-26.95,20.88-5.22,15.11-.39,38.66,48.46,67.74-10.03-.59-24.1-10.99-24.1-10.99l-31.72-31.49c-32.66-29.62-47.11,7.11-46.42,6.81,6.17-2.65,12.47-2.75,17.59-2.03,5.13.72,9.94,2.82,14.18,5.81,3.79,2.67,7.09,2.77,27.96,20.43,20.87,17.66,37.01,14.29,42.49,12.31.02.07.04.12.08.12.51,0,1-.02,1.51-.03.02.01.04.02.06.03,0,0,0-.02.01-.04,2.64-.06,5.18-.16,7.63-.28,4.14,1.99,8.06,4.14,11.65,6.44,1.79,1.43,2.86,3.22,2.15,5.01l-18.24,42.21c-.72,2.15-2.86,2.5-4.65,1.43-13.95-8.94-28.98-14.67-41.14-14.67-7.51-.72-12.52,2.86-12.52,8.59,0,18.96,78.34,12.16,78.34,80.13,0,22.23-10.62,40.24-28.85,51.43h81.01c2.73,0,4.94-2.21,4.94-4.94V111.74c0-2.73-2.21-4.94-4.94-4.94Zm-98.95-65.75c24.94-6.9,24.15,47.11,23.21,60.96-.29,1.01-.53,1.92-.73,2.72-45.9-56.02-22.48-63.68-22.48-63.68Zm69.99,28.77c5.14-.15,8.84,4.92,7.05,9.74-2.57,6.92-13.72,16.94-50.86,27.04-.93.25,21.3-36.1,43.8-36.78Z"/><path class="cls-1" d="m66.48,213.01v23.56c11.63,6.07,23.49,10.38,33.44,10.38,7.51.72,12.52-3.58,12.52-8.94,0-10.18-24.4-12.9-45.96-25Z"/></svg>